<?xml version="1.0" encoding="utf-8"?>
<!-- Generator: Adobe Illustrator 19.2.0, SVG Export Plug-In . SVG Version: 6.00 Build 0)  -->
<svg version="1.1" id="Layer_1" xmlns="http://www.w3.org/2000/svg" xmlns:xlink="http://www.w3.org/1999/xlink" x="0px" y="0px"
	 viewBox="0 0 433.8 78.1" style="enable-background:new 0 0 433.8 78.1;" xml:space="preserve">
<style type="text/css">
	.st0{fill:#FFFFFF;}
</style>
<g>
	<path class="st0" d="M130.4,38.3v20.6h-8.8v-20c0-4-2-6.4-5.6-6.4c-4,0-6.2,2.7-6.2,7.6v18.8H101v-20c0-4-2-6.4-5.6-6.4
		c-3.8,0-6.2,2.7-6.2,7.6v18.8h-8.8V24.4h8.8V29c1.9-3,5.1-4.5,9.3-4.5c4.1,0,7.2,1.6,9.1,4.8c2.2-3.2,5.6-4.8,10-4.8
		C125.4,24.4,130.4,29.9,130.4,38.3z"/>
	<path class="st0" d="M138,16c0-2.9,2.4-5.4,5.3-5.4c3,0,5.4,2.5,5.4,5.4s-2.4,5.3-5.4,5.3C140.4,21.3,138,18.9,138,16z M138.9,58.9
		V24.4h8.8v34.5H138.9z"/>
	<path class="st0" d="M184.7,28.1c2.4,2.5,3.6,5.8,3.6,10.2v20.5h-8.5V39.4c0-4.5-2.7-6.9-6.8-6.9c-4.5,0-7.5,2.8-7.5,8.3v18H157
		V24.4h8.5v4.8c2.2-3.2,5.5-4.7,10-4.7C179.2,24.4,182.3,25.6,184.7,28.1z"/>
	<path class="st0" d="M262.5,24.4h9.5l-12.8,34.5h-9.9l-12.8-34.5h9.5l8.1,24.5L262.5,24.4z"/>
	<path class="st0" d="M301.6,25.4h8.8v33.5h-8.8V55c-2.5,3.3-6.2,4.9-10.9,4.9c-4.5,0-8.3-1.7-11.5-5.1s-4.8-7.7-4.8-12.6
		s1.6-9.1,4.8-12.6c3.2-3.4,7-5.2,11.5-5.2c4.7,0,8.4,1.6,10.9,4.9V25.4z M292.4,51.6c2.7,0,4.9-0.9,6.6-2.6
		c1.8-1.8,2.7-4.1,2.7-6.8c0-2.8-0.9-5-2.7-6.8c-1.7-1.8-4-2.7-6.6-2.7c-2.7,0-4.9,0.9-6.6,2.7c-1.7,1.7-2.6,4-2.6,6.8
		s0.9,5,2.6,6.8C287.5,50.8,289.7,51.6,292.4,51.6z"/>
	<path class="st0" d="M362.7,45.7c1.1,4.4,4.3,6.3,9.5,6.3c3.3,0,5.8-1.1,7.5-3.3l7,4c-3.3,4.8-8.2,7.2-14.6,7.2
		c-5.6,0-10-1.7-13.4-5c-3.4-3.4-5-7.6-5-12.7c0-5,1.7-9.3,5-12.6c3.3-3.4,7.6-5.1,12.8-5.1c4.9,0,9,1.7,12.2,5.1
		c3.2,3.4,4.8,7.6,4.8,12.6c0,1.1,0,2.3-0.2,3.6L362.7,45.7z M379.7,39.1c-1-4.7-4.4-6.8-8.3-6.8c-4.6,0-7.8,2.4-8.8,6.8H379.7z"/>
	<path class="st0" d="M416.3,24.5h9.3l-12.2,33.6c-3.5,9.7-9.2,13.9-17.7,13.4v-8.1c4.7,0.1,7.2-1.9,8.8-6.4l-13.8-32.5h9.5
		l8.7,22.6L416.3,24.5z"/>
	<path class="st0" d="M327.9,10L327.9,10c-8.8,1.1-8.5,7.8-8.5,7.8v41.4h8.5V10L327.9,10z"/>
	<path class="st0" d="M230.8,12v-0.1c-8.8,1.1-8.5,7.8-8.5,7.8v9.7c-2.7-3.3-6.1-4.9-10.8-4.9c-4.5,0-8.3,1.7-11.6,5.2
		c-3.2,3.4-4.7,7.6-4.7,12.6s1.6,9.2,4.8,12.6s7,5.1,11.5,5.1c4.7,0,8-1.6,10.8-4.9v4.1h8.5V12L230.8,12z M219.8,49
		c-1.7,1.7-4,2.6-6.6,2.6c-2.7,0-4.9-0.9-6.7-2.6c-1.7-1.8-2.6-4.1-2.6-6.8c0-2.8,0.9-5,2.6-6.8c1.8-1.8,4-2.7,6.7-2.7
		s4.9,0.9,6.6,2.7c1.7,1.7,2.6,4,2.6,6.8C222.5,44.9,221.6,47.2,219.8,49z"/>
	<path class="st0" d="M345.7,10L345.7,10c-8.8,1.1-8.5,7.8-8.5,7.8v41.4h8.5V10L345.7,10z"/>
	<g>
		<path class="st0" d="M44.4,20.3c-3.1,3.6-3.8,20.1-3.8,20.7l0,0l0,0c0,0,1.9,1,13.4-9.2s18.4-19.5,18.4-19.5S49.6,14.3,44.4,20.3z
			"/>
		<path class="st0" d="M37.1,41c0,0,0-0.1,0-0.2l0,0c0-0.3,0-0.8-0.1-1.5l0,0c0-0.1,0-0.3,0-0.4l0,0c0-0.2,0-0.3,0-0.5l0,0
			c0-0.2,0-0.3,0-0.5v-0.1c0-0.2,0-0.3,0-0.5v-0.1c0-0.2,0-0.4,0-0.6l0,0c0-0.2,0-0.4,0-0.6v-0.1c0-0.2,0-0.4,0-0.6v-0.1
			c0-0.2,0-0.4-0.1-0.6v-0.1c0-0.2,0-0.4-0.1-0.6v-0.1c0-0.2,0-0.4-0.1-0.6c0-0.1,0-0.1,0-0.2c0-0.2,0-0.4-0.1-0.6v-0.1
			c0-0.2-0.1-0.4-0.1-0.7c0,0,0,0,0-0.1c0-0.2-0.1-0.4-0.1-0.6v-0.1c0-0.2-0.1-0.4-0.1-0.6c0-0.1,0-0.1,0-0.2c0-0.2-0.1-0.4-0.1-0.7
			v-0.1c0-0.2-0.1-0.4-0.1-0.6c0,0,0,0,0-0.1c0-0.2-0.1-0.4-0.1-0.7v-0.1c0-0.2-0.1-0.4-0.1-0.6V27c0-0.2-0.1-0.4-0.1-0.6
			c0,0,0,0,0-0.1c0-0.2-0.1-0.4-0.1-0.6v-0.1c0-0.2-0.1-0.4-0.1-0.6v-0.1c0-0.2-0.1-0.4-0.1-0.6v-0.1c-0.1-0.2-0.1-0.4-0.2-0.5l0,0
			c-0.1-0.2-0.1-0.4-0.2-0.5v-0.1c-0.1-0.2-0.1-0.3-0.2-0.5v-0.1c-0.1-0.2-0.1-0.3-0.2-0.5l0,0c-0.1-0.1-0.1-0.3-0.2-0.4
			c0,0,0,0,0-0.1c-0.1-0.1-0.1-0.3-0.2-0.4c0,0,0,0,0-0.1c-0.1-0.1-0.1-0.2-0.2-0.3c0,0,0,0,0-0.1c-0.1-0.1-0.1-0.2-0.2-0.3
			C28.7,14.3,6,12.4,6,12.4s6.9,9.3,18.4,19.5C35.3,42,37.1,41,37.1,41L37.1,41L37.1,41z"/>
	</g>
</g>
</svg>
