<?xml version="1.0" encoding="utf-8"?>
<!-- Generator: Adobe Illustrator 21.0.2, SVG Export Plug-In . SVG Version: 6.00 Build 0)  -->
<svg version="1.1" id="Layer_1" xmlns="http://www.w3.org/2000/svg" xmlns:xlink="http://www.w3.org/1999/xlink" x="0px" y="0px"
	 viewBox="0 0 441.7 78.8" style="enable-background:new 0 0 441.7 78.8;" xml:space="preserve">
<style type="text/css">
	.st0{fill:#FFFFFF;}
</style>
<path class="st0" d="M138.3,39.3v20.6h-8.8v-20c0-4-2-6.4-5.6-6.4c-4,0-6.2,2.7-6.2,7.6v18.8h-8.8v-20c0-4-2-6.4-5.6-6.4
	c-3.8,0-6.2,2.7-6.2,7.6v18.8h-8.8V25.4h8.8V30c1.9-3,5.1-4.5,9.3-4.5c4.1,0,7.2,1.6,9.1,4.8c2.2-3.2,5.6-4.8,10-4.8
	C133.3,25.4,138.3,30.9,138.3,39.3z"/>
<path class="st0" d="M145.9,17c0-2.9,2.4-5.4,5.3-5.4c3,0,5.4,2.5,5.4,5.4s-2.4,5.3-5.4,5.3C148.3,22.3,145.9,19.9,145.9,17z
	 M146.8,59.8V25.4h8.8v34.5h-8.8V59.8z"/>
<path class="st0" d="M192.6,29.1c2.4,2.5,3.6,5.8,3.6,10.2v20.5h-8.5V40.4c0-4.5-2.7-6.9-6.8-6.9c-4.5,0-7.5,2.8-7.5,8.3v18h-8.5
	V25.4h8.5v4.8c2.2-3.2,5.5-4.7,10-4.7C187.2,25.4,190.2,26.6,192.6,29.1z"/>
<path class="st0" d="M270.4,25.4h9.5l-12.8,34.5h-9.9l-12.8-34.5h9.5l8.1,24.5L270.4,25.4z"/>
<path class="st0" d="M309.5,26.4h8.8v33.5h-8.8V56c-2.5,3.3-6.2,4.9-10.9,4.9c-4.5,0-8.3-1.7-11.5-5.1c-3.2-3.4-4.8-7.7-4.8-12.6
	s1.6-9.1,4.8-12.6c3.2-3.4,7-5.2,11.5-5.2c4.7,0,8.4,1.6,10.9,4.9V26.4z M300.3,52.6c2.7,0,4.9-0.9,6.6-2.6c1.8-1.8,2.7-4.1,2.7-6.8
	c0-2.8-0.9-5-2.7-6.8c-1.7-1.8-4-2.7-6.6-2.7c-2.7,0-4.9,0.9-6.6,2.7c-1.7,1.7-2.6,4-2.6,6.8s0.9,5,2.6,6.8
	C295.4,51.7,297.6,52.6,300.3,52.6z"/>
<path class="st0" d="M370.6,46.7c1.1,4.4,4.3,6.3,9.5,6.3c3.3,0,5.8-1.1,7.5-3.3l7,4c-3.3,4.8-8.2,7.2-14.6,7.2
	c-5.6,0-10-1.7-13.4-5c-3.4-3.4-5-7.6-5-12.7c0-5,1.7-9.3,5-12.6c3.3-3.4,7.6-5.1,12.8-5.1c4.9,0,9,1.7,12.2,5.1s4.8,7.6,4.8,12.6
	c0,1.1,0,2.3-0.2,3.6L370.6,46.7z M387.6,40.1c-1-4.7-4.4-6.8-8.3-6.8c-4.6,0-7.8,2.4-8.8,6.8H387.6z"/>
<path class="st0" d="M424.2,25.5h9.3l-12.2,33.6c-3.5,9.7-9.2,13.9-17.7,13.4v-8.1c4.7,0.1,7.2-1.9,8.8-6.4l-13.8-32.5h9.5l8.7,22.6
	L424.2,25.5z"/>
<path class="st0" d="M335.8,10.9L335.8,10.9c-8.8,1.1-8.5,7.8-8.5,7.8v41.4h8.5V10.9L335.8,10.9z"/>
<path class="st0" d="M238.7,13v-0.1c-8.8,1.1-8.5,7.8-8.5,7.8v9.7c-2.7-3.3-6.1-4.9-10.8-4.9c-4.5,0-8.3,1.7-11.6,5.2
	c-3.2,3.4-4.7,7.6-4.7,12.6s1.6,9.2,4.8,12.6c3.2,3.4,7,5.1,11.5,5.1c4.7,0,8-1.6,10.8-4.9v4.1h8.5V13L238.7,13z M227.8,50
	c-1.7,1.7-4,2.6-6.6,2.6c-2.7,0-4.9-0.9-6.7-2.6c-1.7-1.8-2.6-4.1-2.6-6.8c0-2.8,0.9-5,2.6-6.8c1.8-1.8,4-2.7,6.7-2.7
	s4.9,0.9,6.6,2.7c1.7,1.7,2.6,4,2.6,6.8C230.4,45.9,229.5,48.2,227.8,50z"/>
<path class="st0" d="M353.6,10.9L353.6,10.9c-8.8,1.1-8.5,7.8-8.5,7.8v41.4h8.5V10.9L353.6,10.9z"/>
<g>
	<path class="st0" d="M52.2,21.3c-3.1,3.6-3.7,20.1-3.7,20.7l0,0l0,0c0,0,1.8,1,13.3-9.1c11.4-10.1,18.3-19.4,18.3-19.4
		S57.4,15.3,52.2,21.3z"/>
</g>
<g>
	<path class="st0" d="M41.1,21.3c3.1,3.6,3.7,20.1,3.7,20.7l0,0l0,0c0,0-1.8,1-13.3-9.1C20.1,22.7,13.3,13.5,13.3,13.5
		S35.9,15.3,41.1,21.3z"/>
</g>
</svg>
